<svg width="196" height="48" viewBox="0 0 196 48" fill="none" xmlns="http://www.w3.org/2000/svg">
<mask id="path-1-outside-1_256_5935" maskUnits="userSpaceOnUse" x="0" y="0" width="196" height="48" fill="black">
<rect fill="white" width="196" height="48"/>
<path d="M20.8925 43.1113C9.7968 43.1113 4.00188 39.4277 4.00188 32.5098C4.00188 28.1973 6.18059 24.5361 10.8749 21.3242C9.57219 16.4727 8.62883 11.666 8.13469 7.30859L15.8613 6.18555C16.3329 9.86914 17.0741 13.7324 18.0624 17.5508C22.2851 15.7764 27.5409 14.1367 33.8749 12.6094L35.582 19.3926C19.4999 23.3906 11.9081 27.3438 11.9081 31.9258C11.9081 34.8906 15.0527 36.3281 21.3866 36.3281C24.6659 36.3281 27.8554 35.9688 35.4023 34.7559L36.3007 41.5391C30.4159 42.5723 25.4296 43.1113 20.8925 43.1113ZM74.1393 43.1113C63.2682 43.1113 56.6198 39.6973 56.6198 33.9922C56.6198 31.3867 58.0573 28.6914 60.3034 27.209L67.3112 29.2754C65.7389 30.4883 64.8405 32.0156 64.8854 33.2285C64.8854 35.4297 67.8053 36.5527 73.5553 36.5527C77.5983 36.5527 82.6295 35.9688 86.942 34.9805L87.9303 41.5391C83.483 42.5273 78.6315 43.1113 74.1393 43.1113ZM54.733 25.6816V19.4824L72.5221 19.0332C72.2526 17.9326 72.0055 16.832 71.8034 15.709L55.1823 16.1133V9.95898L70.9049 9.55469C70.7252 8.07227 70.5905 6.58984 70.5006 5.10742L78.0924 4.70312C78.1823 6.27539 78.317 7.8252 78.4967 9.375L89.4577 9.10547V15.2598L79.485 15.4844C79.7096 16.6299 79.9791 17.7529 80.2487 18.8535L89.9069 18.6289V24.8281L82.0905 25.0078C82.8766 27.2539 83.7526 29.5 84.7409 31.7461L76.9694 33.3633C75.8913 30.7803 74.9254 28.04 74.0944 25.1875L54.733 25.6816ZM125.724 36.373C130.396 36.2383 133.046 34.3516 133.046 31.207C133.046 27.7031 129.902 25.8613 123.927 25.8613H123.568V34.3965C123.568 39.877 121.097 42.3926 115.796 42.3926C108.833 42.3926 103.847 38.2598 103.847 32.4199C103.847 26.6025 108.699 22.1328 116.38 20.3359V15.7988H105.509V9.55469H116.38V5.10742H123.568V9.55469H132.193V15.7988H123.568V19.4824H124.331C134.798 19.4824 140.638 23.5703 140.638 30.9375C140.638 37.9902 135.337 42.7969 127.296 42.9766L125.724 36.373ZM138.482 19.9316C137.224 16.3379 135.472 12.6992 133.181 9.46484L139.38 6.5C141.761 9.86914 143.423 13.1934 144.906 17.3711L138.482 19.9316ZM111.035 32.2852C111.035 34.3516 112.607 35.834 114.718 35.834C115.976 35.834 116.38 35.3398 116.38 33.8125V26.9844C113.078 28.1299 111.035 30.0391 111.035 32.2852ZM162.44 35.9238C178.207 35.9238 184.182 32.4199 184.182 23.2109C184.182 17.5059 181.891 14.9453 176.68 14.9453C171.199 14.9453 166.348 18.3594 166.348 23.75V29.7246H158.981V6.9043H166.348V11.8906C169.47 9.03809 172.974 7.75781 177.488 7.75781C186.877 7.75781 191.953 13.1934 191.953 23.2109C191.953 36.7773 182.924 42.8867 162.844 42.8867L162.44 35.9238Z"/>
</mask>
<path d="M8.29192 40.416L6.15129 43.795L6.15761 43.799L6.16396 43.803L8.29192 40.416ZM5.68645 26.5127L9.09404 28.6075L9.09785 28.6013L9.10163 28.5951L5.68645 26.5127ZM10.8525 21.3467L13.1249 24.6385L15.4216 23.053L14.7264 20.3502L10.8525 21.3467ZM8.13469 7.30859L7.55934 3.35019L3.71848 3.90845L4.16074 7.76439L8.13469 7.30859ZM15.8613 6.18555L19.8289 5.67769L19.3123 1.64191L15.2859 2.22714L15.8613 6.18555ZM18.04 17.5732L14.1621 18.554L15.3 23.0533L19.5822 21.264L18.04 17.5732ZM33.8749 12.6094L37.754 11.6332L36.7842 7.77945L32.9242 8.72401L33.8749 12.6094ZM35.582 19.3926L36.5419 23.2757L40.4413 22.3117L39.461 18.4164L35.582 19.3926ZM17.703 25.4346L15.8378 21.8961L15.8321 21.8991L17.703 25.4346ZM11.9081 31.9258L7.90821 31.8996L7.90799 31.9331L7.90833 31.9666L11.9081 31.9258ZM14.2665 35.2275L12.5617 38.846L12.5825 38.8559L12.6035 38.8654L14.2665 35.2275ZM21.3866 36.3281L21.3678 40.3281L21.3956 40.3282L21.4233 40.328L21.3866 36.3281ZM26.7773 35.9912L27.2023 39.9686L27.2156 39.9671L27.2289 39.9656L26.7773 35.9912ZM35.4023 34.7559L39.3676 34.2306L38.8287 30.1619L34.7752 30.8053L35.4023 34.7559ZM36.3007 41.5391L37.0039 45.4768L40.7682 44.8046L40.2661 41.0138L36.3007 41.5391ZM20.8925 39.1113C15.6714 39.1113 12.3546 38.2445 10.4199 37.029L6.16396 43.803C9.94933 46.1813 15.0329 47.1113 20.8925 47.1113V39.1113ZM10.4325 37.037C8.76041 35.9777 8.00188 34.6343 8.00188 32.5098H0.00187683C0.00187683 37.3032 2.10337 41.2306 6.15129 43.795L10.4325 37.037ZM8.00188 32.5098C8.00188 31.0684 8.36342 29.796 9.09404 28.6075L2.27886 24.4179C0.763382 26.883 0.00187683 29.6087 0.00187683 32.5098H8.00188ZM9.10163 28.5951C9.85772 27.3551 11.1299 26.0157 13.1249 24.6385L8.58004 18.0549C5.93312 19.8821 3.76127 21.9866 2.27126 24.4303L9.10163 28.5951ZM14.7264 20.3502C13.4277 15.3017 12.5622 10.807 12.1086 6.8528L4.16074 7.76439C4.66554 12.1656 5.61182 17.0297 6.97857 22.3431L14.7264 20.3502ZM8.71004 11.267L16.4366 10.144L15.2859 2.22714L7.55934 3.35019L8.71004 11.267ZM11.8936 6.6934C12.3942 10.6042 13.1514 14.558 14.1621 18.554L21.9179 16.5925C20.9819 12.8919 20.2866 9.25391 19.8289 5.67769L11.8936 6.6934ZM19.5822 21.264C23.5197 19.6187 28.5836 18.0222 34.8257 16.4947L32.9242 8.72401C26.4383 10.3111 20.9457 12.0239 16.4978 13.8825L19.5822 21.264ZM29.9959 13.5856L31.7029 20.3688L39.461 18.4164L37.754 11.6332L29.9959 13.5856ZM34.622 15.5095C26.4794 17.5224 20.1397 19.6284 15.8378 21.8961L19.5683 28.9731C22.993 27.1678 28.5726 25.2458 36.5419 23.2757L34.622 15.5095ZM15.8321 21.8991C11.8386 24.0124 7.93908 27.177 7.90821 31.8996L15.908 31.9519C15.9081 31.9468 15.9084 31.9401 15.9112 31.9273C15.9141 31.9139 15.9221 31.8832 15.9441 31.833C15.9888 31.7307 16.0982 31.5329 16.352 31.2486C16.8848 30.6518 17.8802 29.8664 19.574 28.9701L15.8321 21.8991ZM7.90833 31.9666C7.92344 33.4468 8.3436 34.9022 9.25402 36.1768C10.1389 37.4156 11.3296 38.2655 12.5617 38.846L15.9714 31.6091C15.6462 31.4558 15.6651 31.3886 15.7639 31.5269C15.8128 31.5954 15.8554 31.6797 15.8825 31.7664C15.9086 31.8502 15.908 31.8969 15.9079 31.885L7.90833 31.9666ZM12.6035 38.8654C14.9599 39.9427 18.0222 40.3123 21.3678 40.3281L21.4055 32.3282C18.4021 32.314 16.7177 31.9499 15.9296 31.5896L12.6035 38.8654ZM21.4233 40.328C23.2086 40.3116 25.1373 40.1893 27.2023 39.9686L26.3522 32.0139C24.4941 32.2124 22.829 32.3147 21.3499 32.3283L21.4233 40.328ZM27.2289 39.9656C29.2953 39.7308 32.2402 39.3079 36.0293 38.7064L34.7752 30.8053C31.0175 31.4018 28.2124 31.8024 26.3256 32.0168L27.2289 39.9656ZM31.4369 35.2811L32.3353 42.0643L40.2661 41.0138L39.3676 34.2306L31.4369 35.2811ZM35.5975 37.6014C29.8843 38.6216 24.9931 39.1113 20.8925 39.1113V47.1113C25.5966 47.1113 30.9776 46.5529 37.0039 45.4768L35.5975 37.6014ZM64.7731 42.0107L65.8459 38.1573L65.8385 38.1552L65.8312 38.1532L64.7731 42.0107ZM58.7311 38.8887L55.9332 41.7473L55.9411 41.755L55.9489 41.7626L58.7311 38.8887ZM57.608 30.1738L54.0916 28.2673L54.0875 28.2749L54.0834 28.2826L57.608 30.1738ZM60.3034 27.209L61.4347 23.3723L59.6624 22.8497L58.1156 23.8603L60.3034 27.209ZM67.3112 29.2754L69.75 32.4459L75.9727 27.6592L68.4425 25.4387L67.3112 29.2754ZM65.4918 31.252L68.896 33.3524L68.9058 33.3364L68.9155 33.3204L65.4918 31.252ZM64.8854 33.2285H68.8854V33.131L68.8806 33.0336L64.8854 33.2285ZM67.0641 35.7217L65.6385 39.459L67.0641 35.7217ZM80.1364 36.1484L80.5891 40.1227L80.6015 40.1213L80.6139 40.1198L80.1364 36.1484ZM86.942 34.9805L90.8974 34.3845L90.2554 30.1241L86.0544 31.0802L86.942 34.9805ZM87.9303 41.5391L88.8202 45.4388L92.4387 44.6131L91.8857 40.9431L87.9303 41.5391ZM54.733 19.4824L54.637 15.4836L50.733 15.5773V19.4824H54.733ZM72.4996 19.0557L72.5957 23.0545L77.4154 22.9387L76.4121 18.2232L72.4996 19.0557ZM71.8034 15.709L75.7257 14.9245L75.0665 11.6284L71.7061 11.7102L71.8034 15.709ZM55.1823 16.1133H51.1823V20.2118L55.2795 20.1121L55.1823 16.1133ZM55.1823 9.95898L55.0852 5.96016L51.1823 6.05495V9.95898H55.1823ZM70.9049 9.57715L71.002 13.576L75.3955 13.4693L74.877 9.10522L70.9049 9.57715ZM70.5006 5.10742L70.2879 1.11308L66.2617 1.32749L66.5081 5.35186L70.5006 5.10742ZM78.0924 4.70312L82.0858 4.47274L81.8564 0.497008L77.8797 0.708785L78.0924 4.70312ZM78.4967 9.375L74.5231 9.8335L74.9419 13.4636L78.595 13.3738L78.4967 9.375ZM89.4577 9.10547H93.4577V5.0059L89.3593 5.10668L89.4577 9.10547ZM89.4577 15.2598L89.5567 19.2585L93.4577 19.1619V15.2598H89.4577ZM79.485 15.5068L79.3859 11.5081L74.6161 11.6262L75.5649 16.3022L79.485 15.5068ZM80.2711 18.8535L76.4022 19.8691L77.2047 22.9261L80.3643 22.8524L80.2711 18.8535ZM89.9069 18.6289H93.9069V14.5346L89.8137 14.63L89.9069 18.6289ZM89.9069 24.8281L89.9991 28.8271L93.9069 28.737V24.8281H89.9069ZM82.1129 25.0078L82.0207 21.0089L76.5711 21.1345L78.3258 26.2954L82.1129 25.0078ZM84.7409 31.7461L85.5558 35.6622L90.3913 34.656L88.4021 30.1351L84.7409 31.7461ZM76.9694 33.3633L73.2738 34.894L74.5414 37.9542L77.7843 37.2794L76.9694 33.3633ZM74.0719 25.21L77.8988 24.0461L77.0141 21.137L73.9744 21.2112L74.0719 25.21ZM54.733 25.6816H50.733V29.7804L54.8306 29.6805L54.733 25.6816ZM74.1393 39.1113C70.785 39.1113 68.0413 38.7685 65.8459 38.1573L63.7003 45.8642C66.7757 46.7204 70.2761 47.1113 74.1393 47.1113V39.1113ZM65.8312 38.1532C63.6208 37.5469 62.2871 36.7639 61.5133 36.0148L55.9489 41.7626C57.9902 43.7387 60.6845 45.037 63.715 45.8683L65.8312 38.1532ZM61.5289 36.03C60.8525 35.3679 60.6198 34.7514 60.6198 33.9922H52.6198C52.6198 37.0064 53.7946 39.6542 55.9332 41.7473L61.5289 36.03ZM60.6198 33.9922C60.6198 33.3725 60.7674 32.7459 61.1327 32.0651L54.0834 28.2826C53.131 30.0575 52.6198 31.9764 52.6198 33.9922H60.6198ZM61.1245 32.0803C61.4996 31.3885 61.9539 30.9086 62.4912 30.5576L58.1156 23.8603C56.4067 24.9768 55.0642 26.4735 54.0916 28.2673L61.1245 32.0803ZM59.172 31.0457L66.1798 33.1121L68.4425 25.4387L61.4347 23.3723L59.172 31.0457ZM64.8723 26.1049C63.7656 26.9563 62.7991 27.9738 62.0682 29.1835L68.9155 33.3204C69.0531 33.0927 69.2995 32.7924 69.75 32.4459L64.8723 26.1049ZM62.0877 29.1515C61.3727 30.3103 60.8093 31.7664 60.8901 33.4234L68.8806 33.0336C68.8908 33.2417 68.857 33.3872 68.8386 33.4472C68.8222 33.5007 68.8233 33.4701 68.896 33.3524L62.0877 29.1515ZM60.8854 33.2285C60.8854 34.7463 61.4152 36.1673 62.4181 37.315C63.3514 38.383 64.5362 39.0385 65.6385 39.459L68.4897 31.9843C68.1395 31.8508 68.235 31.8138 68.4421 32.0508C68.556 32.1812 68.6786 32.3676 68.7675 32.6047C68.8562 32.8416 68.8854 33.0603 68.8854 33.2285H60.8854ZM65.6385 39.459C67.7827 40.2769 70.5348 40.5527 73.5553 40.5527V32.5527C70.8258 32.5527 69.2504 32.2745 68.4897 31.9843L65.6385 39.459ZM73.5553 40.5527C75.7519 40.5527 78.0986 40.4065 80.5891 40.1227L79.6836 32.1741C77.4424 32.4295 75.4017 32.5527 73.5553 32.5527V40.5527ZM80.6139 40.1198C83.1081 39.8199 85.5141 39.4077 87.8297 38.8807L86.0544 31.0802C84.0276 31.5415 81.8964 31.908 79.6588 32.177L80.6139 40.1198ZM82.9867 35.5765L83.975 42.1351L91.8857 40.9431L90.8974 34.3845L82.9867 35.5765ZM87.0404 37.6393C84.9592 38.1142 82.8069 38.4793 80.582 38.7327L81.4876 46.6813C83.9945 46.3957 86.4392 45.9821 88.8202 45.4388L87.0404 37.6393ZM80.582 38.7327C78.3565 38.9863 76.2094 39.1113 74.1393 39.1113V47.1113C76.5314 47.1113 78.9813 46.9668 81.4876 46.6813L80.582 38.7327ZM54.8291 23.4813L72.5957 23.0545L72.4036 15.0568L54.637 15.4836L54.8291 23.4813ZM76.4121 18.2232C76.1116 16.8109 75.9222 15.907 75.838 15.486L67.9933 17.055C68.0888 17.5325 68.2888 18.4854 68.5872 19.8881L76.4121 18.2232ZM75.838 15.486L75.7257 14.9245L67.881 16.4934L67.9933 17.055L75.838 15.486ZM71.7061 11.7102L55.085 12.1145L55.2795 20.1121L71.9006 19.7078L71.7061 11.7102ZM59.1823 16.1133V9.95898H51.1823V16.1133H59.1823ZM55.2794 13.9578L71.002 13.576L70.8078 5.57833L55.0852 5.96016L55.2794 13.9578ZM74.877 9.10522C74.706 7.66578 74.5782 6.25176 74.4931 4.86298L66.5081 5.35186C66.6028 6.89798 66.7445 8.46378 66.9329 10.0491L74.877 9.10522ZM70.7133 9.10176L78.3051 8.69746L77.8797 0.708785L70.2879 1.11308L70.7133 9.10176ZM74.0991 4.93351C74.1933 6.56739 74.3347 8.20075 74.5231 9.8335L82.4704 8.9165C82.2994 7.43467 82.1712 5.95344 82.0858 4.47274L74.0991 4.93351ZM78.595 13.3738L89.556 13.1043L89.3593 5.10668L78.3984 5.37621L78.595 13.3738ZM85.4577 9.10547V15.2598H93.4577V9.10547H85.4577ZM89.3586 11.261L79.3859 11.5081L79.5841 19.5056L89.5567 19.2585L89.3586 11.261ZM75.5649 16.3022C75.7918 17.4207 76.0718 18.6105 76.4022 19.8691L84.1401 17.8379C83.8415 16.7007 83.5975 15.6594 83.4051 14.7114L75.5649 16.3022ZM80.3643 22.8524L90.0001 22.6278L89.8137 14.63L80.1779 14.8546L80.3643 22.8524ZM85.9069 18.6289V24.8281H93.9069V18.6289H85.9069ZM89.8147 20.8292L82.0207 21.0089L82.2051 29.0067L89.9991 28.8271L89.8147 20.8292ZM78.3258 26.2954C79.128 28.6547 80.0463 31.0087 81.0796 33.357L88.4021 30.1351C87.4588 27.9913 86.6252 25.8531 85.9 23.7202L78.3258 26.2954ZM83.9259 27.83L76.1545 29.4472L77.7843 37.2794L85.5558 35.6622L83.9259 27.83ZM80.6649 31.8326C79.6715 29.4341 78.7485 26.8399 77.8988 24.0461L70.245 26.3738C71.1623 29.39 72.1709 32.2312 73.2738 34.894L80.6649 31.8326ZM73.9744 21.2112L54.6355 21.6828L54.8306 29.6805L74.1694 29.2088L73.9744 21.2112ZM58.733 25.6816V19.4824H50.733V25.6816H58.733ZM125.724 36.373L125.621 32.3744L120.69 32.5008L121.833 37.2995L125.724 36.373ZM131.137 34.9355L133.444 38.2034L133.457 38.1944L133.469 38.1853L131.137 34.9355ZM130.71 27.2314L128.672 30.6732L128.692 30.6848L128.711 30.6962L130.71 27.2314ZM123.568 25.8613V21.8613H119.568V25.8613H123.568ZM121.659 40.4834L118.797 37.688L118.797 37.6884L121.659 40.4834ZM115.796 42.3926L115.819 38.3926L115.808 38.3926H115.796V42.3926ZM109.619 41.1123L111.324 37.4937L111.312 37.4879L111.3 37.4822L109.619 41.1123ZM105.374 37.5859L102.046 39.8047L102.051 39.8123L102.056 39.8199L105.374 37.5859ZM105.374 27.1191L101.989 24.9879L105.374 27.1191ZM109.709 22.9639L107.624 19.5507L107.617 19.5544L107.611 19.5582L109.709 22.9639ZM116.38 20.3359L117.291 24.2308L120.38 23.5082V20.3359H116.38ZM116.38 15.7988H120.38V11.7988H116.38V15.7988ZM105.509 15.7988H101.509V19.7988H105.509V15.7988ZM105.509 9.55469V5.55469H101.509V9.55469H105.509ZM116.38 9.55469V13.5547H120.38V9.55469H116.38ZM116.38 5.10742V1.10742H112.38V5.10742H116.38ZM123.568 5.10742H127.568V1.10742H123.568V5.10742ZM123.568 9.55469H119.568V13.5547H123.568V9.55469ZM132.193 9.55469H136.193V5.55469H132.193V9.55469ZM132.193 15.7988V19.7988H136.193V15.7988H132.193ZM123.568 15.7988V11.7988H119.568V15.7988H123.568ZM123.568 19.4824H119.568V23.4824H123.568V19.4824ZM133.203 20.8076L131.835 24.5661L131.842 24.5688L133.203 20.8076ZM138.751 24.7158L135.521 27.0752L135.526 27.0819L135.531 27.0886L138.751 24.7158ZM138.976 37.1367L142.381 39.2363L142.385 39.23L142.388 39.2237L138.976 37.1367ZM134.282 41.3594L132.482 37.787L132.471 37.7924L134.282 41.3594ZM127.296 42.9766L123.405 43.903L124.154 47.0486L127.387 46.9755L127.296 42.9766ZM111.506 34.1045L108.027 36.0789L108.039 36.0995L108.051 36.12L111.506 34.1045ZM112.809 35.3848L110.835 38.8635L110.87 38.8839L110.907 38.9036L112.809 35.3848ZM115.998 35.4072L112.951 32.8166L112.945 32.8236L112.939 32.8307L115.998 35.4072ZM116.38 26.9844H120.38V21.3559L115.065 23.2068L116.38 26.9844ZM112.45 29.2529L115.232 32.1266L115.244 32.1153L115.255 32.1039L112.45 29.2529ZM139.38 6.5L142.643 4.18629L140.694 1.43767L137.654 2.89146L139.38 6.5ZM142.435 11.5762L138.857 13.365L138.863 13.3773L138.87 13.3896L142.435 11.5762ZM144.906 17.3711L146.387 21.0868L149.976 19.6559L148.67 16.019L144.906 17.3711ZM138.482 19.9316L134.699 21.2324L136.064 25.2014L139.963 23.6473L138.482 19.9316ZM133.181 9.46484L131.455 5.85631L127.199 7.89183L129.903 11.7577L133.181 9.46484ZM125.827 40.3717C128.582 40.3011 131.277 39.7332 133.444 38.2034L128.83 31.6677C128.452 31.9347 127.538 32.3252 125.621 32.3744L125.827 40.3717ZM133.469 38.1853C135.793 36.5173 137.046 34.0624 137.046 31.207H129.046C129.046 31.3296 129.034 31.4045 129.025 31.4425C129.017 31.4786 129.01 31.4926 129.009 31.4953C129.007 31.4979 129.001 31.511 128.978 31.5371C128.953 31.5645 128.902 31.6164 128.805 31.6858L133.469 38.1853ZM137.046 31.207C137.046 27.9798 135.465 25.3564 132.709 23.7667L128.711 30.6962C128.993 30.8586 129.03 30.9541 129.014 30.9255C129.01 30.92 129.015 30.9246 129.022 30.9543C129.031 30.9869 129.046 31.066 129.046 31.207H137.046ZM132.749 23.7897C130.306 22.3431 127.201 21.8613 123.927 21.8613V29.8613C126.612 29.8613 128.03 30.293 128.672 30.6732L132.749 23.7897ZM123.927 21.8613H123.568V29.8613H123.927V21.8613ZM119.568 25.8613V34.3965H127.568V25.8613H119.568ZM119.568 34.3965C119.568 36.6327 119.041 37.4392 118.797 37.688L124.52 43.2787C126.822 40.9222 127.568 37.6707 127.568 34.3965H119.568ZM118.797 37.6884C118.593 37.8969 117.897 38.4044 115.819 38.3926L115.774 46.3925C118.996 46.4107 122.208 45.6454 124.52 43.2784L118.797 37.6884ZM115.796 38.3926C113.991 38.3926 112.528 38.0607 111.324 37.4937L107.915 44.7309C110.335 45.871 112.99 46.3926 115.796 46.3926V38.3926ZM111.3 37.4822C110.086 36.9205 109.264 36.2012 108.692 35.352L102.056 39.8199C103.521 41.9954 105.529 43.627 107.939 44.7424L111.3 37.4822ZM108.703 35.3671C108.142 34.5268 107.847 33.5837 107.847 32.4199H99.847C99.847 35.0895 100.57 37.5903 102.046 39.8047L108.703 35.3671ZM107.847 32.4199C107.847 31.2551 108.144 30.2274 108.759 29.2504L101.989 24.9879C100.568 27.2453 99.847 29.7514 99.847 32.4199H107.847ZM108.759 29.2504C109.406 28.2235 110.378 27.25 111.807 26.3696L107.611 19.5582C105.297 20.9837 103.379 22.7804 101.989 24.9879L108.759 29.2504ZM111.795 26.377C113.257 25.4835 115.069 24.7506 117.291 24.2308L115.469 16.4411C112.57 17.1192 109.935 18.1382 107.624 19.5507L111.795 26.377ZM120.38 20.3359V15.7988H112.38V20.3359H120.38ZM116.38 11.7988H105.509V19.7988H116.38V11.7988ZM109.509 15.7988V9.55469H101.509V15.7988H109.509ZM105.509 13.5547H116.38V5.55469H105.509V13.5547ZM120.38 9.55469V5.10742H112.38V9.55469H120.38ZM116.38 9.10742H123.568V1.10742H116.38V9.10742ZM119.568 5.10742V9.55469H127.568V5.10742H119.568ZM123.568 13.5547H132.193V5.55469H123.568V13.5547ZM128.193 9.55469V15.7988H136.193V9.55469H128.193ZM132.193 11.7988H123.568V19.7988H132.193V11.7988ZM119.568 15.7988V19.4824H127.568V15.7988H119.568ZM123.568 23.4824H124.331V15.4824H123.568V23.4824ZM124.331 23.4824C127.507 23.4824 129.972 23.8876 131.835 24.5661L134.572 17.0491C131.584 15.9607 128.134 15.4824 124.331 15.4824V23.4824ZM131.842 24.5688C133.699 25.2409 134.826 26.124 135.521 27.0752L141.981 22.3565C140.161 19.8636 137.59 18.1413 134.565 17.0464L131.842 24.5688ZM135.531 27.0886C136.208 28.0076 136.638 29.2165 136.638 30.9375H144.638C144.638 27.777 143.81 24.8381 141.972 22.343L135.531 27.0886ZM136.638 30.9375C136.638 32.5927 136.252 33.9239 135.564 35.0498L142.388 39.2237C143.916 36.7258 144.638 33.9242 144.638 30.9375H136.638ZM135.571 35.0372C134.88 36.1583 133.892 37.0767 132.482 37.787L136.081 44.9318C138.714 43.6056 140.856 41.7089 142.381 39.2363L135.571 35.0372ZM132.471 37.7924C131.086 38.4956 129.364 38.9288 127.206 38.9776L127.387 46.9755C130.53 46.9045 133.465 46.2596 136.092 44.9264L132.471 37.7924ZM131.187 42.0501L129.615 35.4466L121.833 37.2995L123.405 43.903L131.187 42.0501ZM107.035 32.2852C107.035 33.6115 107.359 34.9018 108.027 36.0789L114.985 32.1301C114.998 32.1528 115.014 32.1884 115.024 32.2303C115.035 32.2714 115.035 32.2934 115.035 32.2852H107.035ZM108.051 36.12C108.729 37.2821 109.68 38.2081 110.835 38.8635L114.783 31.906C114.795 31.9125 114.829 31.9345 114.871 31.9759C114.914 32.0177 114.944 32.0594 114.961 32.089L108.051 36.12ZM110.907 38.9036C112.099 39.5478 113.384 39.834 114.673 39.834V31.834C114.646 31.834 114.63 31.8325 114.623 31.8318C114.617 31.8311 114.619 31.8309 114.628 31.833C114.636 31.8351 114.649 31.8388 114.665 31.8449C114.681 31.8509 114.697 31.8581 114.711 31.8659L110.907 38.9036ZM114.673 39.834C115.673 39.834 117.653 39.6527 119.058 37.9838L112.939 32.8307C113.409 32.2718 113.944 32.0221 114.261 31.9199C114.557 31.8246 114.728 31.834 114.673 31.834V39.834ZM119.046 37.9978C120.277 36.5496 120.38 34.7546 120.38 33.8125H112.38C112.38 33.9943 112.363 33.9855 112.395 33.8525C112.424 33.732 112.543 33.2959 112.951 32.8166L119.046 37.9978ZM120.38 33.8125V26.9844H112.38V33.8125H120.38ZM115.065 23.2068C113.01 23.9223 111.128 24.9417 109.644 26.402L115.255 32.1039C115.658 31.7074 116.396 31.2144 117.696 30.7619L115.065 23.2068ZM109.667 26.3793C108.101 27.8956 107.035 29.8949 107.035 32.2852H115.035C115.035 32.2943 115.033 32.3151 115.027 32.3415C115.022 32.3679 115.015 32.3844 115.013 32.3876C115.009 32.3951 115.05 32.3029 115.232 32.1266L109.667 26.3793ZM136.117 8.81371C137.172 10.3008 138.084 11.8179 138.857 13.365L146.013 9.78732C145.049 7.86052 143.925 5.99349 142.643 4.18629L136.117 8.81371ZM138.87 13.3896C139.666 14.9558 140.425 16.7304 141.141 18.7232L148.67 16.019C147.859 13.7591 146.971 11.6705 146 9.76277L138.87 13.3896ZM143.425 13.6554L137.001 16.2159L139.963 23.6473L146.387 21.0868L143.425 13.6554ZM142.264 18.6309C140.844 14.5003 138.91 10.6759 136.459 7.17203L129.903 11.7577C131.915 14.6327 133.514 17.7862 134.699 21.2324L142.264 18.6309ZM134.907 13.0734L141.106 10.1085L137.654 2.89146L131.455 5.85631L134.907 13.0734ZM162.44 35.9238L162.451 31.9238L158.2 31.9118L158.446 36.1557L162.44 35.9238ZM175.13 34.6885L176.156 38.5546L176.165 38.5524L176.173 38.5501L175.13 34.6885ZM182.025 30.6455L185.179 33.1066L185.184 33.1004L185.188 33.0942L182.025 30.6455ZM182.362 16.9443L179.388 19.6183L179.396 19.6275L179.404 19.6367L182.362 16.9443ZM171.536 16.0459L169.858 12.4151L169.851 12.4181L169.845 12.4212L171.536 16.0459ZM167.763 19.1455L164.498 16.8345L167.763 19.1455ZM166.348 29.7246V33.7246H170.348V29.7246H166.348ZM158.981 29.7246H154.981V33.7246H158.981V29.7246ZM158.981 6.9043V2.9043H154.981V6.9043H158.981ZM166.348 6.9043H170.348V2.9043H166.348V6.9043ZM166.348 11.9131H162.348V21.049L169.061 14.8523L166.348 11.9131ZM171.379 8.76855L172.756 12.5241L172.765 12.5209L172.773 12.5177L171.379 8.76855ZM188.225 11.7334L185.299 14.4609L185.307 14.4692L188.225 11.7334ZM191.953 23.2109L195.953 23.2241L195.953 23.2115L195.953 23.199L191.953 23.2109ZM188.831 34.374L185.577 32.0475L185.569 32.0587L188.831 34.374ZM179.33 40.8203L180.571 44.623L180.579 44.6203L179.33 40.8203ZM162.844 42.8867L158.851 43.1186L159.069 46.8783L162.835 46.8867L162.844 42.8867ZM162.428 39.9238C167.891 39.9392 172.515 39.521 176.156 38.5546L174.104 30.8223C171.426 31.533 167.59 31.9384 162.451 31.9238L162.428 39.9238ZM176.173 38.5501C179.842 37.5589 183.032 35.8574 185.179 33.1066L178.872 28.1844C178.144 29.1172 176.737 30.111 174.087 30.8269L176.173 38.5501ZM185.188 33.0942C187.32 30.3411 188.182 26.9132 188.182 23.2109H180.182C180.182 25.7079 179.606 27.2364 178.863 28.1968L185.188 33.0942ZM188.182 23.2109C188.182 19.9203 187.5 16.6461 185.321 14.252L179.404 19.6367C179.651 19.9079 180.182 20.8115 180.182 23.2109H188.182ZM185.337 14.2703C183.093 11.7741 179.889 10.9453 176.68 10.9453V18.9453C178.651 18.9453 179.236 19.4492 179.388 19.6183L185.337 14.2703ZM176.68 10.9453C174.29 10.9453 171.999 11.4252 169.858 12.4151L173.215 19.6767C174.248 19.1991 175.386 18.9453 176.68 18.9453V10.9453ZM169.845 12.4212C167.684 13.4296 165.868 14.899 164.498 16.8345L171.028 21.4566C171.544 20.7267 172.244 20.1296 173.228 19.6706L169.845 12.4212ZM164.498 16.8345C163.045 18.8871 162.348 21.2411 162.348 23.75H170.348C170.348 22.785 170.594 22.0693 171.028 21.4566L164.498 16.8345ZM162.348 23.75V29.7246H170.348V23.75H162.348ZM166.348 25.7246H158.981V33.7246H166.348V25.7246ZM162.981 29.7246V6.9043H154.981V29.7246H162.981ZM158.981 10.9043H166.348V2.9043H158.981V10.9043ZM162.348 6.9043V11.9131H170.348V6.9043H162.348ZM169.061 14.8523C170.273 13.7338 171.505 12.9829 172.756 12.5241L170.002 5.01305C167.66 5.87188 165.537 7.21737 163.635 8.97387L169.061 14.8523ZM172.773 12.5177C174.07 12.0353 175.624 11.7578 177.488 11.7578V3.75781C174.831 3.75781 172.311 4.15415 169.985 5.01943L172.773 12.5177ZM177.488 11.7578C181.409 11.7578 183.791 12.8434 185.299 14.4609L191.151 9.00589C187.717 5.3226 182.941 3.75781 177.488 3.75781V11.7578ZM185.307 14.4692C186.855 16.1206 187.94 18.8225 187.953 23.2229L195.953 23.199C195.936 17.5668 194.536 12.617 191.143 8.99763L185.307 14.4692ZM187.953 23.1978C187.94 27.1535 187.041 30.0005 185.577 32.0475L192.085 36.7006C194.754 32.9676 195.936 28.3725 195.953 23.2241L187.953 23.1978ZM185.569 32.0587C184.133 34.0819 181.774 35.8066 178.081 37.0203L180.579 44.6203C185.451 43.0189 189.426 40.4461 192.093 36.6894L185.569 32.0587ZM178.089 37.0177C174.373 38.2304 169.341 38.9012 162.853 38.8867L162.835 46.8867C169.793 46.9022 175.752 46.1953 180.571 44.623L178.089 37.0177ZM166.837 42.6549L166.433 35.692L158.446 36.1557L158.851 43.1186L166.837 42.6549Z" fill="#F5888D" mask="url(#path-1-outside-1_256_5935)"/>
</svg>
