<svg width="373" height="692" viewBox="0 0 373 692" fill="none" xmlns="http://www.w3.org/2000/svg">
<g clip-path="url(#clip0_600_6134)">
<path d="M78.3101 468.809C68.8701 471.099 55.0301 473.169 39.0701 470.379C18.9601 466.859 2.04015 456.789 0.140148 459.919C-0.519852 461.009 1.25015 462.689 5.71015 470.489C8.25015 474.939 10.1201 478.669 11.2801 481.059C6.81015 481.849 2.97015 485.439 1.87015 489.839C0.770148 494.239 2.49015 499.209 6.06015 502.009C0.950148 503.689 -1.05985 510.439 0.850148 515.479C2.75015 520.509 7.41015 523.979 12.2001 526.429C29.0201 535.039 49.6702 530.279 59.4101 527.509L78.3101 468.829V468.809Z" fill="#FFE578"/>
<path d="M78.3101 468.809C68.8701 471.099 55.0301 473.169 39.0701 470.379C18.9601 466.859 2.04015 456.789 0.140148 459.919C-0.519852 461.009 1.25015 462.689 5.71015 470.489C8.25015 474.939 10.1201 478.669 11.2801 481.059C6.81015 481.849 2.97015 485.439 1.87015 489.839C0.770148 494.239 2.49015 499.209 6.06015 502.009C0.950148 503.689 -1.05985 510.439 0.850148 515.479C2.75015 520.509 7.41015 523.979 12.2001 526.429C29.0201 535.039 49.6702 530.279 59.4101 527.509L78.3101 468.829V468.809Z" fill="#FFCF5F"/>
<path d="M266.59 633.86C267.58 639.28 268.77 646.36 269.76 651.78C285.84 652.9 301.62 658.02 315.31 666.53C317.79 668.07 320.54 670.55 319.73 673.36C318.93 676.15 315.34 676.82 312.44 676.97C300.39 677.59 288.35 678.22 276.3 678.84C280.59 678.73 282.65 685.07 280.01 688.46C277.37 691.85 272.32 692.34 268.18 691.2C264.04 690.06 260.38 687.64 256.36 686.11C250.25 683.78 243.34 683.6 237.11 685.62C234.43 686.49 231.86 687.75 229.08 688.14C226.29 688.53 223.11 687.82 221.52 685.5C219.96 683.23 220.38 680.07 221.67 677.63C222.95 675.19 224.96 673.22 226.64 671.04C232.07 663.98 233.47 652.09 231.12 643.5L266.59 633.85V633.86Z" fill="#FBB03B"/>
<path d="M52.3698 61.0208C49.9698 51.3508 47.6199 41.5008 48.1499 31.5608C48.6799 21.6208 52.5198 11.3908 60.4398 5.35077C73.4698 -4.57923 93.3898 0.310771 104.96 11.9108C116.53 23.5008 121.68 39.9008 125.86 55.7408C136.66 96.6908 143.69 138.631 146.84 180.861C154.1 181.811 161.36 182.761 168.62 183.701C174.47 136.891 193.96 91.8708 224.08 55.5708C229.29 49.3008 234.92 43.1808 241.99 39.1108C249.06 35.0408 257.81 33.2508 265.48 36.0308C277.23 40.3008 283.14 54.2608 282.05 66.7108C280.97 79.1708 274.49 90.4308 267.95 101.081C248.01 133.551 236.39 172.261 212.47 201.921C216.71 207.201 218.77 208.171 222.83 218.131C226.89 228.101 228.39 238.881 229.87 249.541C233.02 272.351 236.17 295.171 239.33 317.981C241.57 334.171 243.59 351.641 235.78 365.991C229.97 376.681 219.29 384.111 207.8 388.131C196.32 392.151 184 393.091 171.83 393.351C148.87 393.851 125.87 392.061 103.26 388.031C90.0699 385.681 76.7998 382.481 65.1698 375.831C53.5398 369.181 43.5998 358.631 40.2598 345.651C36.9198 332.671 41.3699 317.361 52.6599 310.141C54.7399 308.811 55.3999 290.261 56.0399 286.901C58.4398 274.421 58.7598 268.021 59.0098 266.341C60.5898 256.021 64.4099 240.861 74.3498 220.351C79.7598 213.291 85.1798 206.231 90.5898 199.171C88.7498 193.051 86.2799 184.751 83.3899 174.901C79.9099 163.021 76.6098 152.351 68.3498 122.191C62.7798 101.861 57.4599 81.4608 52.3898 61.0008L52.3698 61.0208Z" fill="#FFFBFB"/>
<path d="M145.72 197.41C150.68 193.16 158.54 192.77 163.9 196.49C159.3 193.38 152.43 197.7 151.67 203.2C150.91 208.7 154.59 213.99 159.17 217.13C163.75 220.28 169.19 221.86 174.28 224.11C191.56 231.77 204.53 247.45 211.32 265.08C218.11 282.71 219.15 302.16 216.99 320.93C215.25 336.08 210.97 351.9 199.8 362.29C186.09 375.05 165.67 376.57 146.96 377.4C124.29 378.41 98.99 378.52 82.29 363.16C70.71 352.5 65.8 336.35 64.12 320.7C61.51 296.45 65.79 270.91 79.36 250.64C88.21 237.42 101.23 226.81 116.17 221.26C121.83 219.16 133.62 219.77 137.99 216.23C143.4 211.84 139.6 202.64 145.71 197.41H145.72Z" fill="#FFE578"/>
<path d="M162.47 640.779C160.12 649.369 161.77 659.899 167.2 666.959C168.88 669.149 170.89 671.109 172.17 673.549C173.45 675.989 173.88 679.139 172.32 681.419C170.73 683.739 167.54 684.449 164.76 684.059C161.98 683.669 159.4 682.409 156.73 681.539C150.51 679.519 143.6 679.699 137.48 682.029C133.47 683.559 129.8 685.979 125.66 687.119C121.52 688.259 116.47 687.769 113.83 684.379C111.19 680.989 113.25 674.649 117.54 674.759C105.49 674.139 93.4499 673.509 81.3999 672.889C78.4999 672.739 74.9099 672.069 74.1099 669.279C73.3099 666.469 76.0499 663.989 78.5299 662.449C92.2099 653.929 108 648.819 124.08 647.699C125.07 642.279 126.14 636.439 127.12 631.029L162.46 640.789L162.47 640.779Z" fill="#FBB03B"/>
<path d="M174.12 393.301C181.58 422.791 201.8 451.831 230.48 461.951C259.16 472.071 292.41 467.551 317.84 450.871C326.59 445.131 344.07 430.371 354.25 432.781C365.24 435.391 368.4 452.981 369.92 460.801C377.92 501.931 365.14 567.891 313.15 609.351C286.98 630.221 260.73 636.801 246.46 640.531C211.63 649.631 162.58 644.131 128.8 631.661C95.0199 619.191 65.9899 590.801 58.8699 555.501C53.3299 528.021 61.0999 499.671 70.7099 473.331C83.5599 438.121 88.2699 407.111 94.4499 386.311" fill="#FFE578"/>
<path d="M232.72 493.759C241.39 487.719 251.1 482.069 261.67 482.189C275.68 482.339 289.03 495.789 286.36 509.549C283.94 521.989 271.25 529.229 259.88 534.819C236.3 546.419 212.71 558.019 189.13 569.619C182.32 572.969 164.83 577.299 166.29 563.629C167.1 556.029 179.73 543.999 184.53 538.189C198.48 521.289 214.74 506.279 232.72 493.759Z" fill="#F15A24"/>
<path d="M264.74 482.04C263.9 481.84 264.43 476.61 267.35 472.72C269.31 470.11 272.89 467.919 275.42 468.369C278.62 468.939 280.95 473.03 279.1 475.7C281.23 473.15 283.42 470.55 286.28 468.88C289.14 467.2 292.87 466.6 295.77 468.2C297.49 469.15 298.82 470.899 298.98 472.859C299.14 474.819 297.99 476.889 296.14 477.549C299.72 475.039 305.5 476.05 307.44 479.97C309.38 483.89 305.9 489.5 301.57 488.94C306.26 488.94 310.5 493.309 310.34 498C310.19 502.689 305.67 506.769 300.99 506.459C304.16 507.219 305.06 511.929 302.89 514.369C300.72 516.819 296.41 516.539 293.86 515.549C289.96 514.049 287.11 510.77 287.02 508.72C286.69 500.9 283.17 486.509 264.72 482.049L264.74 482.04Z" fill="#098B00"/>
<path d="M232.72 493.759C241.39 487.719 251.1 482.069 261.67 482.189C275.68 482.339 289.03 495.789 286.36 509.549C283.94 521.989 271.25 529.229 259.88 534.819C236.3 546.419 212.71 558.019 189.13 569.619C182.32 572.969 164.83 577.299 166.29 563.629C167.1 556.029 179.73 543.999 184.53 538.189C198.48 521.289 214.74 506.279 232.72 493.759Z" fill="#F7931E"/>
<path d="M264.74 482.04C263.9 481.84 264.43 476.61 267.35 472.72C269.31 470.11 272.89 467.919 275.42 468.369C278.62 468.939 280.95 473.03 279.1 475.7C281.23 473.15 283.42 470.55 286.28 468.88C289.14 467.2 292.87 466.6 295.77 468.2C297.49 469.15 298.82 470.899 298.98 472.859C299.14 474.819 297.99 476.889 296.14 477.549C299.72 475.039 305.5 476.05 307.44 479.97C309.38 483.89 305.9 489.5 301.57 488.94C306.26 488.94 310.5 493.309 310.34 498C310.19 502.689 305.67 506.769 300.99 506.459C304.16 507.219 305.06 511.929 302.89 514.369C300.72 516.819 296.41 516.539 293.86 515.549C289.96 514.049 287.11 510.77 287.02 508.72C286.69 500.9 283.17 486.509 264.72 482.049L264.74 482.04Z" fill="#009245"/>
<path d="M200.44 467.25C205.46 473.41 214.06 482.31 227.1 488.18C243.35 495.5 259.15 494.82 259.39 498.47C259.48 499.8 257.54 501.95 246.38 505.19C249.88 508.07 251.47 513.08 250.27 517.46C249.07 521.83 245.13 525.33 240.65 526C244.28 529.97 242.71 536.84 238.59 540.29C234.46 543.74 228.7 544.48 223.33 544.26C204.44 543.51 188.79 529.24 181.66 522.04" fill="#FFE578"/>
<path d="M200.44 467.25C205.46 473.41 214.06 482.31 227.1 488.18C243.35 495.5 259.15 494.82 259.39 498.47C259.48 499.8 257.54 501.95 246.38 505.19C249.88 508.07 251.47 513.08 250.27 517.46C249.07 521.83 245.13 525.33 240.65 526C244.28 529.97 242.71 536.84 238.59 540.29C234.46 543.74 228.7 544.48 223.33 544.26C204.44 543.51 188.79 529.24 181.66 522.04" fill="#FFCF5F"/>
<path d="M73.25 89.7193C70.9 80.7093 68.52 71.4093 69.39 62.0593C70.27 52.7093 75.23 43.2093 83.17 40.6393C90.34 38.3193 98.18 42.2093 103.32 48.3593C108.46 54.5093 111.39 62.5693 114 70.5293C121.92 94.6693 127.86 119.639 131.74 145.029C133.13 154.169 138.32 170.219 134.45 178.379C130.48 186.759 117.43 185.819 109.34 187.049C99.55 188.539 97.41 182.039 94.86 172.459C87.51 144.929 80.45 117.299 73.25 89.7193Z" fill="#FEF3F4"/>
<path d="M249.63 115.7C253.74 108.34 257.94 100.73 259.34 92.3302C260.74 83.9402 258.65 74.4802 252.4 70.4202C246.76 66.7502 239.09 68.3902 233.23 72.6102C227.38 76.8302 222.99 83.2402 218.9 89.6102C206.5 108.97 195.6 129.51 186.4 150.88C183.09 158.57 174.91 171.47 176.36 179.5C177.85 187.75 189.32 189.89 196.02 192.8C204.13 196.33 207.46 191.12 211.88 183.3C224.57 160.84 237.04 138.22 249.63 115.68V115.7Z" fill="#FEF3F4"/>
<path d="M128.5 319.73C133.32 321.83 140.23 326.06 144.44 328.53C148.65 331 150.39 330.72 150.04 334.53C149.62 339.15 144.28 342.71 138.29 344.1C132.3 345.49 125.74 345.13 119.35 344.76L81.0702 342.54C72.4802 342.04 61.7302 340.61 59.9902 333.11C59.7502 332.1 59.8002 331.12 59.8002 331.12C59.8002 331.12 59.8802 330.17 60.2702 329.26C61.8802 325.54 70.0802 323.73 70.0802 323.73C104.93 312.08 117.58 314.99 128.5 319.74V319.73Z" fill="#FBB03B"/>
<path d="M149.59 336.391C145.41 344.111 137.24 349.851 127.47 351.891C119.23 353.611 110.5 352.671 102 351.731C93.6501 350.801 85.2001 349.851 77.3601 347.131C69.5201 344.411 63.7801 340.771 60.3301 334.211" fill="#FBB03B"/>
<path d="M94.1801 293.59C96.8366 293.59 98.9901 290.546 98.9901 286.79C98.9901 283.035 96.8366 279.99 94.1801 279.99C91.5236 279.99 89.3701 283.035 89.3701 286.79C89.3701 290.546 91.5236 293.59 94.1801 293.59Z" fill="black"/>
<path d="M141.17 293.59C143.826 293.59 145.98 290.546 145.98 286.79C145.98 283.035 143.826 279.99 141.17 279.99C138.513 279.99 136.36 283.035 136.36 286.79C136.36 290.546 138.513 293.59 141.17 293.59Z" fill="black"/>
</g>
<defs>
<clipPath id="clip0_600_6134">
<rect width="372.11" height="691.76" fill="white"/>
</clipPath>
</defs>
</svg>
