<svg width="24" height="24" viewBox="0 0 24 24" fill="none" xmlns="http://www.w3.org/2000/svg">
<path fill-rule="evenodd" clip-rule="evenodd" d="M2.29209 6.36632C2.1045 6.56387 1.9999 6.8259 1.9999 7.09832C1.9999 7.37075 2.1045 7.63278 2.29209 7.83032L10.5561 16.3933C10.7383 16.585 10.9575 16.7376 11.2005 16.8419C11.4435 16.9462 11.7052 17 11.9696 17C12.234 17 12.4957 16.9462 12.7387 16.8419C12.9817 16.7376 13.2009 16.585 13.3831 16.3933L21.7081 7.76832C22.0931 7.36832 22.0981 6.72032 21.7181 6.31432C21.6276 6.21603 21.5178 6.13739 21.3956 6.0833C21.2734 6.02921 21.1414 6.00081 21.0078 5.99987C20.8741 5.99893 20.7417 6.02548 20.6188 6.07785C20.4959 6.13022 20.385 6.20731 20.2931 6.30432L12.6761 14.1973C12.585 14.2932 12.4754 14.3696 12.3538 14.4218C12.2323 14.474 12.1014 14.5009 11.9691 14.5009C11.8368 14.5009 11.7059 14.474 11.5844 14.4218C11.4628 14.3696 11.3532 14.2932 11.2621 14.1973L3.70509 6.36732C3.61409 6.27143 3.50453 6.19507 3.38306 6.14289C3.2616 6.09071 3.13079 6.0638 2.99859 6.0638C2.8664 6.0638 2.73558 6.09071 2.61412 6.14289C2.49266 6.19507 2.38309 6.27043 2.29209 6.36632Z" fill="black"/>
</svg>
