<svg width="39" height="13" viewBox="0 0 39 13" fill="none" xmlns="http://www.w3.org/2000/svg">
<path fill-rule="evenodd" clip-rule="evenodd" d="M16.5764 0.0147079C17.2588 0.119669 17.7268 0.757895 17.6218 1.44023C17.4426 2.60563 17.1748 3.67194 16.7937 4.6223L18.3413 6.00009C18.857 6.45913 18.9029 7.24925 18.4438 7.76489C17.9848 8.28052 17.1947 8.3264 16.679 7.86736L15.5198 6.8354C15.3402 7.0563 15.1484 7.26539 14.9437 7.46223C14.5002 7.88873 14.0122 8.24276 13.4822 8.52999C13.4963 8.5646 13.5091 8.60014 13.5202 8.63657L14.1711 10.7539C14.3739 11.4138 14.0034 12.1131 13.3435 12.316C12.6836 12.5188 11.9843 12.1483 11.7814 11.4884L11.1306 9.37111C11.1275 9.36089 11.1245 9.35067 11.1216 9.34045C10.4519 9.46406 9.73986 9.52258 8.98834 9.52258C8.66462 9.52258 8.35059 9.50852 8.04627 9.48068L7.64346 11.4263C7.50351 12.1024 6.84203 12.5369 6.166 12.397C5.48998 12.257 5.05542 11.5955 5.19538 10.9195L5.61624 8.88664C4.65936 8.47558 3.85007 7.87136 3.19049 7.09185C3.13242 7.02321 3.07576 6.95352 3.02048 6.8828L2.08118 7.719C1.56555 8.17804 0.775422 8.13216 0.316385 7.61653C-0.142652 7.1009 -0.0967723 6.31077 0.41886 5.85173L1.79781 4.62414C1.43027 3.60912 1.21663 2.50234 1.11326 1.36351C1.05085 0.675976 1.55761 0.0680331 2.24514 0.0056276C2.93267 -0.0567779 3.54062 0.449985 3.60302 1.13751C3.7755 3.03773 4.27515 4.50339 5.09897 5.477C5.88093 6.40115 7.07331 7.02258 8.98834 7.02258C11.0015 7.02258 12.3129 6.52383 13.2108 5.66031C14.1336 4.77278 14.8023 3.32656 15.1509 1.06013C15.2559 0.377797 15.8941 -0.0902534 16.5764 0.0147079Z" fill="#F5888D"/>
<path fill-rule="evenodd" clip-rule="evenodd" d="M36.5752 0.0147079C37.2575 0.119669 37.7256 0.757895 37.6206 1.44023C37.4413 2.60571 37.1735 3.67208 36.7923 4.62248L38.3401 6.00037C38.8557 6.45941 38.9016 7.24953 38.4426 7.76517C37.9836 8.2808 37.1934 8.32668 36.6778 7.86764L35.5185 6.83555C35.3388 7.05639 35.1471 7.26543 34.9424 7.46223C34.4989 7.88876 34.0109 8.2428 33.4809 8.53004C33.495 8.56472 33.5078 8.60034 33.519 8.63684L34.1698 10.7541C34.3727 11.414 34.0021 12.1134 33.3423 12.3162C32.6824 12.5191 31.983 12.1486 31.7802 11.4887L31.1293 9.37138C31.1262 9.36108 31.1231 9.35077 31.1203 9.34046C30.4506 9.46407 29.7386 9.52258 28.9871 9.52258C28.6634 9.52258 28.3494 9.50852 28.0451 9.48069L27.6422 11.4266C27.5023 12.1026 26.8408 12.5372 26.1648 12.3972C25.4887 12.2573 25.0542 11.5958 25.1941 10.9198L25.6151 8.88667C24.6581 8.47561 23.8488 7.87138 23.1892 7.09185C23.0773 6.9595 22.9705 6.82319 22.8688 6.6832L21.915 7.53239C21.5025 7.89962 20.8704 7.86292 20.5031 7.45041C20.1359 7.03791 20.1726 6.40581 20.5851 6.03858L21.8915 4.87556C21.4653 3.79308 21.224 2.5971 21.112 1.36351C21.0496 0.675976 21.5564 0.0680331 22.2439 0.00562761C22.9314 -0.0567779 23.5394 0.449985 23.6018 1.13751C23.7742 3.03773 24.2739 4.50339 25.0977 5.477C25.8797 6.40115 27.0721 7.02258 28.9871 7.02258C31.0002 7.02258 32.3116 6.52383 33.2095 5.66031C34.1324 4.77278 34.801 3.32656 35.1497 1.06013C35.2546 0.377797 35.8928 -0.0902534 36.5752 0.0147079Z" fill="#F5888D"/>
</svg>
