<svg width="24" height="24" viewBox="0 0 24 24" fill="none" xmlns="http://www.w3.org/2000/svg">
<path d="M12 9.67477C11.362 5.83404 9.1895 3 6.599 3C3.508 3 1 7.02675 1 12C1 16.9733 3.508 21 6.599 21C9.1895 21 11.362 18.166 12 14.3252C11.879 13.5812 11.802 12.8043 11.802 12C11.802 11.1957 11.8735 10.4188 12 9.67477ZM6.599 19.4134C5.796 19.4134 5.0425 19.003 4.4045 18.3082C3.035 17.5751 2.0725 15.8845 2.0725 13.9149C2.0725 13.2255 2.1935 12.5745 2.4025 11.9781C2.408 7.89119 4.2835 4.58116 6.599 4.58116C8.9145 4.58116 10.7955 7.90213 10.7955 11.9945C10.7955 16.0869 8.9145 19.4079 6.599 19.4079V19.4134Z" fill="#F5888D"/>
<path d="M9.7615 13.9149C9.7615 11.2723 8.04 9.13313 5.917 9.13313C4.3495 9.13313 3.002 10.304 2.4025 11.9781C2.4025 11.9836 2.4025 11.9891 2.4025 11.9945C2.4025 14.6644 3.2055 17.0006 4.4045 18.3082C4.8665 18.5544 5.378 18.6967 5.917 18.6967C8.04 18.6967 9.7615 16.5574 9.7615 13.9149ZM4.2505 16.1854C3.574 16.1854 3.0295 15.4523 3.0295 14.5441C3.0295 13.6359 3.574 12.9027 4.2505 12.9027C4.927 12.9027 5.4715 13.6359 5.4715 14.5441C5.4715 15.4523 4.927 16.1854 4.2505 16.1854Z" fill="#F5888D"/>
<path d="M2.4025 11.9836C2.1935 12.5745 2.0725 13.231 2.0725 13.9204C2.0725 15.8954 3.035 17.586 4.4045 18.3137C3.2055 17.0115 2.4025 14.6754 2.4025 12C2.4025 11.9945 2.4025 11.9891 2.4025 11.9836Z" fill="#F5888D"/>
<path d="M17.401 3C14.8105 3 12.638 5.83404 12 9.67477C12.121 10.4188 12.198 11.1957 12.198 12C12.198 12.8043 12.1265 13.5812 12 14.3252C12.638 18.166 14.8105 21 17.401 21C20.492 21 23 16.9733 23 12C23 7.02675 20.492 3 17.401 3ZM17.401 19.4134C16.5705 19.4134 15.8005 18.9812 15.1515 18.2535C13.837 17.493 12.9185 15.8407 12.9185 13.9149C12.9185 13.2693 13.023 12.662 13.21 12.0985C13.21 12.0657 13.21 12.0328 13.21 12C13.21 7.9076 15.091 4.58663 17.4065 4.58663C19.722 4.58663 21.603 7.9076 21.603 12C21.603 16.0924 19.722 19.4134 17.4065 19.4134H17.401Z" fill="#F5888D"/>
<path d="M12 9.67477C11.879 10.4188 11.802 11.1957 11.802 12C11.802 12.8043 11.8735 13.5812 12 14.3252C12.121 13.5812 12.198 12.8043 12.198 12C12.198 11.1957 12.1265 10.4188 12 9.67477Z" fill="#F5888D"/>
<path d="M20.613 13.9149C20.613 11.2723 18.8915 9.13313 16.7685 9.13313C15.1625 9.13313 13.7875 10.3587 13.21 12.0985C13.232 14.6863 14.002 16.9514 15.1515 18.248C15.641 18.5325 16.1855 18.6912 16.763 18.6912C18.886 18.6912 20.6075 16.552 20.6075 13.9094L20.613 13.9149ZM15.5475 16.1854C14.871 16.1854 14.3265 15.4523 14.3265 14.5441C14.3265 13.6359 14.871 12.9027 15.5475 12.9027C16.224 12.9027 16.7685 13.6359 16.7685 14.5441C16.7685 15.4523 16.224 16.1854 15.5475 16.1854Z" fill="#F5888D"/>
<path d="M12.9185 13.9149C12.9185 15.8407 13.8315 17.493 15.1515 18.2535C13.9965 16.9568 13.2265 14.6918 13.21 12.104C13.023 12.662 12.9185 13.2748 12.9185 13.9204V13.9149Z" fill="#F5888D"/>
<path d="M4.2505 12.9027C3.574 12.9027 3.0295 13.6359 3.0295 14.5441C3.0295 15.4523 3.574 16.1854 4.2505 16.1854C4.927 16.1854 5.4715 15.4523 5.4715 14.5441C5.4715 13.6359 4.927 12.9027 4.2505 12.9027Z" fill="white"/>
<path d="M15.5475 12.9027C14.871 12.9027 14.3265 13.6359 14.3265 14.5441C14.3265 15.4523 14.871 16.1854 15.5475 16.1854C16.224 16.1854 16.7685 15.4523 16.7685 14.5441C16.7685 13.6359 16.224 12.9027 15.5475 12.9027Z" fill="white"/>
</svg>
