<svg width="27" height="20" viewBox="0 0 27 20" fill="none" xmlns="http://www.w3.org/2000/svg">
<path fill-rule="evenodd" clip-rule="evenodd" d="M9.67176 10C9.67176 10.1089 9.67041 10.217 9.66776 10.3242C8.86188 9.41874 7.72754 8.85496 6.47094 8.85496C5.07344 8.85496 3.82718 9.55224 3.01574 10.6414C3.00536 10.431 3 10.2171 3 10C3 7.71853 3.59178 5.79423 4.3899 4.53455C5.21156 3.23771 5.97406 3 6.33588 3C6.6977 3 7.4602 3.23771 8.28186 4.53455C9.07998 5.79423 9.67176 7.71853 9.67176 10ZM12.6718 10C12.6718 15.5229 9.83509 20 6.33588 20C2.83667 20 0 15.5229 0 10C0 4.47715 2.83667 0 6.33588 0C9.83509 0 12.6718 4.47715 12.6718 10ZM23.5504 10.643C23.5608 10.4321 23.5662 10.2177 23.5662 10C23.5662 7.71853 22.9744 5.79423 22.1763 4.53455C21.3546 3.23771 20.5921 3 20.2303 3C19.8685 3 19.106 3.23771 18.2843 4.53455C17.4862 5.79423 16.8944 7.71853 16.8944 10C16.8944 10.1084 16.8958 10.216 16.8984 10.3228C17.7042 9.41816 18.838 8.85496 20.094 8.85496C21.4921 8.85496 22.7389 9.55293 23.5504 10.643ZM26.5662 10C26.5662 15.5229 23.7295 20 20.2303 20C16.7311 20 13.8944 15.5229 13.8944 10C13.8944 4.47715 16.7311 0 20.2303 0C23.7295 0 26.5662 4.47715 26.5662 10Z" fill="#F5888D"/>
</svg>
