<svg width="24" height="24" viewBox="0 0 24 24" fill="none" xmlns="http://www.w3.org/2000/svg">
<path d="M10.3878 9.00799C10.7585 9.06502 11.0128 9.41177 10.9558 9.78249C10.8528 10.452 10.6985 11.0627 10.4785 11.6053L11.375 12.4034C11.6552 12.6528 11.6801 13.0821 11.4307 13.3622C11.1813 13.6424 10.752 13.6673 10.4719 13.4179L9.78806 12.8091C9.6808 12.9432 9.56576 13.0697 9.4425 13.1882C9.18551 13.4354 8.90186 13.6395 8.59299 13.804C8.60532 13.8309 8.61604 13.8589 8.62497 13.888L8.99499 15.0917C9.10519 15.4503 8.90389 15.8303 8.54536 15.9405C8.18684 16.0507 7.80686 15.8494 7.69666 15.4908L7.32665 14.2871C7.32208 14.2722 7.31804 14.2573 7.31453 14.2424C6.92761 14.3159 6.51507 14.3508 6.07858 14.3508C5.88552 14.3508 5.69862 14.342 5.51789 14.3245L5.28313 15.4584C5.20709 15.8257 4.8477 16.0618 4.48041 15.9858C4.11312 15.9097 3.87702 15.5503 3.95306 15.183L4.19759 14.0019C3.64737 13.7698 3.1834 13.4255 2.80641 12.98C2.76644 12.9328 2.72764 12.8846 2.69 12.8356L2.13072 13.3335C1.85058 13.5829 1.42129 13.558 1.17189 13.2778C0.922492 12.9977 0.947419 12.5684 1.22757 12.319L2.02754 11.6068C1.8153 11.0276 1.69208 10.3941 1.63278 9.74082C1.59888 9.36727 1.87421 9.03697 2.24775 9.00307C2.62129 8.96916 2.95159 9.24449 2.9855 9.61803C3.08386 10.7016 3.3691 11.5422 3.84331 12.1027C4.29478 12.6362 4.98209 12.9925 6.07858 12.9925C7.22838 12.9925 7.98284 12.7075 8.50098 12.2092C9.03268 11.6979 9.41458 10.8679 9.61331 9.57598C9.67034 9.20526 10.0171 8.95096 10.3878 9.00799Z" fill="#F5888D"/>
<path d="M21.7576 9.00799C22.1283 9.06502 22.3826 9.41177 22.3256 9.78249C22.2226 10.452 22.0683 11.0627 21.8483 11.6053L22.7449 12.4034C23.025 12.6528 23.0499 13.0821 22.8005 13.3622C22.5511 13.6424 22.1219 13.6673 21.8417 13.4179L21.1579 12.8091C21.0506 12.9432 20.9356 13.0697 20.8123 13.1882C20.5553 13.4354 20.2716 13.6395 19.9628 13.804C19.9751 13.8309 19.9858 13.8589 19.9948 13.888L20.3648 15.0917C20.475 15.4503 20.2737 15.8303 19.9151 15.9405C19.5566 16.0507 19.1766 15.8494 19.0664 15.4908L18.6964 14.2871C18.6919 14.2722 18.6878 14.2573 18.6843 14.2424C18.2974 14.3159 17.8849 14.3508 17.4484 14.3508C17.2553 14.3508 17.0684 14.342 16.8877 14.3245L16.6529 15.4584C16.5769 15.8257 16.2175 16.0618 15.8502 15.9858C15.4829 15.9097 15.2468 15.5503 15.3229 15.183L15.5674 14.0019C15.0172 13.7698 14.5532 13.4255 14.1762 12.98C14.1069 12.8981 14.0412 12.8135 13.9789 12.7265L13.4109 13.2321C13.1868 13.4316 12.8434 13.4116 12.6439 13.1875C12.4444 12.9634 12.4643 12.62 12.6884 12.4204L13.4493 11.7431C13.205 11.1276 13.0666 10.4457 13.0026 9.74082C12.9687 9.36727 13.244 9.03697 13.6175 9.00307C13.9911 8.96916 14.3214 9.24449 14.3553 9.61803C14.4537 10.7016 14.7389 11.5422 15.2131 12.1027C15.6646 12.6362 16.3519 12.9925 17.4484 12.9925C18.5982 12.9925 19.3526 12.7075 19.8708 12.2092C20.4025 11.6979 20.7844 10.8679 20.9831 9.57598C21.0401 9.20526 21.3869 8.95096 21.7576 9.00799Z" fill="#F5888D"/>
</svg>
