<svg width="24" height="24" viewBox="0 0 24 24" fill="none" xmlns="http://www.w3.org/2000/svg">
<path fill-rule="evenodd" clip-rule="evenodd" d="M16.6337 2.29219C16.4361 2.10459 16.1741 2 15.9017 2C15.6292 2 15.3672 2.10459 15.1697 2.29219L6.60668 10.5562C6.415 10.7384 6.26237 10.9576 6.15808 11.2006C6.05378 11.4436 6 11.7053 6 11.9697C6 12.2341 6.05378 12.4958 6.15808 12.7388C6.26237 12.9818 6.415 13.201 6.60668 13.3832L15.2317 21.7082C15.6317 22.0932 16.2797 22.0982 16.6857 21.7182C16.784 21.6277 16.8626 21.5179 16.9167 21.3957C16.9708 21.2735 16.9992 21.1415 17.0001 21.0079C17.0011 20.8742 16.9745 20.7418 16.9222 20.6189C16.8698 20.496 16.7927 20.3851 16.6957 20.2932L8.80268 12.6762C8.70676 12.5851 8.63038 12.4755 8.57819 12.3539C8.52599 12.2324 8.49908 12.1015 8.49908 11.9692C8.49908 11.8369 8.52599 11.706 8.57819 11.5845C8.63038 11.4629 8.70676 11.3533 8.80268 11.2622L16.6327 3.70519C16.7286 3.61419 16.8049 3.50462 16.8571 3.38316C16.9093 3.2617 16.9362 3.13089 16.9362 2.99869C16.9362 2.8665 16.9093 2.73568 16.8571 2.61422C16.8049 2.49276 16.7296 2.38319 16.6337 2.29219Z" fill="black"/>
</svg>
