<svg width="24" height="24" viewBox="0 0 24 24" fill="none" xmlns="http://www.w3.org/2000/svg">
<path fill-rule="evenodd" clip-rule="evenodd" d="M6.36648 21.7078C6.56402 21.8954 6.82605 22 7.09848 22C7.3709 22 7.63293 21.8954 7.83048 21.7078L16.3935 13.4438C16.5852 13.2616 16.7378 13.0424 16.8421 12.7994C16.9464 12.5564 17.0002 12.2947 17.0002 12.0303C17.0002 11.7659 16.9464 11.5042 16.8421 11.2612C16.7378 11.0182 16.5852 10.799 16.3935 10.6168L7.76848 2.29181C7.36848 1.90681 6.72048 1.90181 6.31448 2.28181C6.21618 2.37234 6.13755 2.48211 6.08345 2.6043C6.02936 2.7265 6.00096 2.85851 6.00002 2.99214C5.99909 3.12576 6.02563 3.25816 6.078 3.3811C6.13037 3.50404 6.20746 3.61491 6.30448 3.70681L14.1975 11.3238C14.2934 11.4149 14.3698 11.5245 14.422 11.6461C14.4742 11.7676 14.5011 11.8985 14.5011 12.0308C14.5011 12.1631 14.4742 12.294 14.422 12.4155C14.3698 12.5371 14.2934 12.6467 14.1975 12.7378L6.36748 20.2948C6.27159 20.3858 6.19522 20.4954 6.14304 20.6168C6.09086 20.7383 6.06395 20.8691 6.06395 21.0013C6.06395 21.1335 6.09086 21.2643 6.14304 21.3858C6.19522 21.5072 6.27059 21.6168 6.36648 21.7078Z" fill="black"/>
</svg>
