<svg width="20" height="20" viewBox="0 0 20 20" fill="none" xmlns="http://www.w3.org/2000/svg">
<path d="M10.7141 0.000359222C11.2641 -0.00964078 11.7851 0.189359 12.1741 0.570359C12.5651 0.939359 12.7741 1.45036 12.7741 1.99036C12.7741 3.09036 13.6841 3.98136 14.8151 3.98136C15.1641 3.98136 15.5141 3.88036 15.8251 3.71036C16.7941 3.18936 18.0041 3.52036 18.5541 4.45036L19.2351 5.62036C19.4051 5.92036 19.5041 6.26036 19.5041 6.61036C19.5041 7.32036 19.1151 7.98136 18.4851 8.33036C18.1741 8.50036 17.9141 8.76036 17.7351 9.06136C17.2041 10.0004 17.5351 11.1894 18.4851 11.7314C19.4441 12.2804 19.7741 13.4814 19.2351 14.4304L18.5541 15.5614C18.1941 16.1804 17.5241 16.5614 16.8041 16.5614C16.4441 16.5614 16.0841 16.4704 15.7851 16.2904C15.4641 16.1204 15.1151 16.0204 14.7641 16.0204C14.2241 16.0204 13.7041 16.2314 13.3251 16.6104C12.9341 16.9814 12.7241 17.4904 12.7241 18.0204C12.7241 19.1104 11.8151 20.0004 10.6841 20.0004H9.31513C8.77413 20.0004 8.26413 19.7804 7.89413 19.4104C7.51413 19.0304 7.31513 18.5304 7.31513 18.0104C7.31513 16.9104 6.41413 16.0204 5.28513 16.0204C4.91413 16.0204 4.55413 16.1204 4.24413 16.3114C3.77413 16.5704 3.21413 16.6404 2.69413 16.5104C2.17413 16.3704 1.72413 16.0304 1.45413 15.5804L0.815129 14.4504C0.514129 13.9814 0.424129 13.4204 0.565129 12.8904C0.704129 12.3604 1.06513 11.9104 1.55413 11.6404C1.86513 11.4704 2.12413 11.2204 2.30413 10.9104C2.82513 9.97036 2.49413 8.79036 1.55413 8.24036C0.604129 7.70036 0.274129 6.51036 0.815129 5.57036L1.45413 4.45036C1.72413 3.98136 2.17413 3.64036 2.70413 3.50036C3.23513 3.36036 3.79413 3.43936 4.26413 3.71036C4.58413 3.88036 4.93413 3.97036 5.28513 3.97036C5.82513 3.97036 6.34413 3.76036 6.72413 3.39036C7.10413 3.02036 7.31513 2.51036 7.31513 1.99036C7.31513 0.890359 8.22413 0.000359222 9.35413 0.000359222H10.7141ZM11.1151 7.48136C10.0651 7.05036 8.85413 7.28036 8.04413 8.07036C7.24413 8.85036 6.99413 10.0404 7.43413 11.0614C7.86513 12.0904 8.88413 12.7604 10.0241 12.7604H10.0351C10.7851 12.7704 11.4851 12.4814 12.0141 11.9604C12.5441 11.4504 12.8441 10.7504 12.8441 10.0204C12.8541 8.91036 12.1641 7.90036 11.1151 7.48136Z" fill="currentColor"/>
</svg>
