<svg width="38" height="30" viewBox="0 0 38 30" fill="none" xmlns="http://www.w3.org/2000/svg">
<g clip-path="url(#clip0_620_7510)">
<path d="M26.32 29.8707L12 25.1107V4.8907L26.32 0.130697C26.53 0.0506969 27.19 -0.169303 27.94 0.230697H27.96C28.59 0.580697 29.01 1.4007 29.01 2.3107V27.7007C29.01 28.6107 28.59 29.4307 27.96 29.7707H27.94C27.19 30.1707 26.53 29.9607 26.32 29.8807V29.8707Z" fill="black"/>
<path d="M12 25H3.6C1.82 25 0 23.22 0 21.47V8.53C0 6.78 1.82 5 3.6 5H12V25Z" fill="black"/>
<path d="M32 7L36 5" stroke="black" stroke-width="2" stroke-linecap="round" stroke-linejoin="round"/>
<path d="M32 15H37" stroke="black" stroke-width="2" stroke-linecap="round" stroke-linejoin="round"/>
<path d="M32 23L36 25" stroke="black" stroke-width="2" stroke-linecap="round" stroke-linejoin="round"/>
</g>
<defs>
<clipPath id="clip0_620_7510">
<rect width="38" height="30" fill="white"/>
</clipPath>
</defs>
</svg>
