<svg width="76" height="76" viewBox="0 0 76 76" fill="none" xmlns="http://www.w3.org/2000/svg">
<path d="M55.7333 27.8672H60.8V48.1339H55.7333V27.8672ZM50.6666 15.2005V60.8005C50.6633 61.2519 50.5395 61.6943 50.3079 62.0818C50.0763 62.4693 49.7453 62.7878 49.3493 63.0045C48.9824 63.2251 48.5613 63.3391 48.1333 63.3339C47.659 63.3354 47.1938 63.2037 46.7906 62.9539L27.132 50.6672H19C17.3203 50.6672 15.7093 49.9999 14.5216 48.8122C13.3339 47.6245 12.6666 46.0136 12.6666 44.3339V31.6672C12.6666 29.9875 13.3339 28.3766 14.5216 27.1888C15.7093 26.0011 17.3203 25.3339 19 25.3339H27.132L46.7906 13.0472C47.1745 12.8073 47.6156 12.6746 48.0681 12.6629C48.5206 12.6513 48.9679 12.7611 49.3636 12.9809C49.7593 13.2007 50.0888 13.5226 50.318 13.9129C50.5471 14.3033 50.6675 14.7479 50.6666 15.2005Z" fill="#111111"/>
</svg>
